<mxfile host="app.diagrams.net" modified="2024-03-09T04:41:47.802Z" agent="Mozilla/5.0 (Macintosh; Intel Mac OS X 10.15; rv:123.0) Gecko/20100101 Firefox/123.0" etag="0Aq1k3MllzGa1G109X4U" version="24.0.3" type="github">
  <diagram name="Page-1" id="QpbFhLZhkfOCANfJb5Wa">
    <mxGraphModel dx="1306" dy="862" grid="1" gridSize="10" guides="1" tooltips="1" connect="1" arrows="1" fold="1" page="1" pageScale="1" pageWidth="850" pageHeight="1100" math="1" shadow="0">
      <root>
        <mxCell id="0" />
        <mxCell id="1" parent="0" />
        <mxCell id="vhn-oHe6Cb4y7kR26sW8-1" value="" style="shape=curlyBracket;whiteSpace=wrap;html=1;rounded=1;flipH=1;labelPosition=right;verticalLabelPosition=middle;align=left;verticalAlign=middle;direction=north;size=0;" parent="1" vertex="1">
          <mxGeometry x="270" y="300" width="290" height="20" as="geometry" />
        </mxCell>
        <mxCell id="vhn-oHe6Cb4y7kR26sW8-3" value="ggF" style="rounded=1;whiteSpace=wrap;html=1;fillColor=#FF6666;" parent="1" vertex="1">
          <mxGeometry x="280" y="360" width="120" height="40" as="geometry" />
        </mxCell>
        <mxCell id="vhn-oHe6Cb4y7kR26sW8-4" value="VBF" style="rounded=1;whiteSpace=wrap;html=1;fillColor=#FFB366;" parent="1" vertex="1">
          <mxGeometry x="440" y="360" width="120" height="40" as="geometry" />
        </mxCell>
        <mxCell id="vhn-oHe6Cb4y7kR26sW8-6" value="&lt;div&gt;$$N_{\mathrm{jet}} = 0$$&lt;/div&gt;" style="rounded=1;whiteSpace=wrap;html=1;fillColor=#dae8fc;strokeColor=#6c8ebf;" parent="1" vertex="1">
          <mxGeometry x="200" y="200" width="120" height="40" as="geometry" />
        </mxCell>
        <mxCell id="vhn-oHe6Cb4y7kR26sW8-7" value="&lt;div&gt;$$N_{\mathrm{jet}} = 1$$&lt;/div&gt;" style="rounded=1;whiteSpace=wrap;html=1;fillColor=#dae8fc;strokeColor=#6c8ebf;" parent="1" vertex="1">
          <mxGeometry x="360" y="200" width="120" height="40" as="geometry" />
        </mxCell>
        <mxCell id="vhn-oHe6Cb4y7kR26sW8-8" value="&lt;div&gt;$$N_{\mathrm{jet}} \geq 2$$&lt;/div&gt;" style="rounded=1;whiteSpace=wrap;html=1;fillColor=#dae8fc;strokeColor=#6c8ebf;" parent="1" vertex="1">
          <mxGeometry x="520" y="200" width="120" height="40" as="geometry" />
        </mxCell>
        <mxCell id="vhn-oHe6Cb4y7kR26sW8-10" value="" style="endArrow=none;html=1;rounded=0;exitX=0.5;exitY=0;exitDx=0;exitDy=0;startArrow=block;startFill=1;" parent="1" source="vhn-oHe6Cb4y7kR26sW8-3" edge="1">
          <mxGeometry width="50" height="50" relative="1" as="geometry">
            <mxPoint x="339.5" y="280" as="sourcePoint" />
            <mxPoint x="340" y="320" as="targetPoint" />
          </mxGeometry>
        </mxCell>
        <mxCell id="tt5cfVx4_955_2wsRJ6P-1" value="" style="edgeStyle=elbowEdgeStyle;elbow=vertical;endArrow=block;html=1;curved=0;rounded=1;endSize=8;startSize=8;endFill=1;" parent="1" edge="1">
          <mxGeometry width="50" height="50" relative="1" as="geometry">
            <mxPoint x="601" y="300" as="sourcePoint" />
            <mxPoint x="500" y="360" as="targetPoint" />
            <Array as="points">
              <mxPoint x="550" y="330" />
            </Array>
          </mxGeometry>
        </mxCell>
        <mxCell id="tt5cfVx4_955_2wsRJ6P-6" value="Event selections" style="rounded=1;whiteSpace=wrap;html=1;" parent="1" vertex="1">
          <mxGeometry x="200" y="260" width="440" height="40" as="geometry" />
        </mxCell>
        <mxCell id="tt5cfVx4_955_2wsRJ6P-12" value="" style="endArrow=none;html=1;rounded=0;startArrow=block;startFill=1;" parent="1" edge="1">
          <mxGeometry width="50" height="50" relative="1" as="geometry">
            <mxPoint x="579.5" y="260" as="sourcePoint" />
            <mxPoint x="579.5" y="240" as="targetPoint" />
          </mxGeometry>
        </mxCell>
        <mxCell id="tt5cfVx4_955_2wsRJ6P-15" value="" style="endArrow=none;html=1;rounded=0;" parent="1" edge="1">
          <mxGeometry width="50" height="50" relative="1" as="geometry">
            <mxPoint x="339.5" y="300" as="sourcePoint" />
            <mxPoint x="339.5" y="260" as="targetPoint" />
          </mxGeometry>
        </mxCell>
        <mxCell id="tt5cfVx4_955_2wsRJ6P-16" value="" style="endArrow=none;html=1;rounded=0;" parent="1" edge="1">
          <mxGeometry width="50" height="50" relative="1" as="geometry">
            <mxPoint x="499.5" y="300" as="sourcePoint" />
            <mxPoint x="499.5" y="260" as="targetPoint" />
          </mxGeometry>
        </mxCell>
        <mxCell id="tt5cfVx4_955_2wsRJ6P-20" value="" style="endArrow=none;html=1;rounded=0;" parent="1" edge="1">
          <mxGeometry width="50" height="50" relative="1" as="geometry">
            <mxPoint x="570" y="300" as="sourcePoint" />
            <mxPoint x="570" y="260" as="targetPoint" />
          </mxGeometry>
        </mxCell>
        <mxCell id="tt5cfVx4_955_2wsRJ6P-23" value="" style="endArrow=none;html=1;rounded=0;startArrow=block;startFill=1;" parent="1" edge="1">
          <mxGeometry width="50" height="50" relative="1" as="geometry">
            <mxPoint x="419.5" y="260" as="sourcePoint" />
            <mxPoint x="419.5" y="240" as="targetPoint" />
          </mxGeometry>
        </mxCell>
        <mxCell id="tt5cfVx4_955_2wsRJ6P-25" value="" style="endArrow=block;html=1;rounded=0;endFill=1;" parent="1" edge="1">
          <mxGeometry width="50" height="50" relative="1" as="geometry">
            <mxPoint x="259.5" y="240" as="sourcePoint" />
            <mxPoint x="259.5" y="260" as="targetPoint" />
          </mxGeometry>
        </mxCell>
      </root>
    </mxGraphModel>
  </diagram>
</mxfile>
